<?xml version="1.0" encoding="UTF-8"?>
<svg id="Layer_2" data-name="Layer 2" xmlns="http://www.w3.org/2000/svg" viewBox="0 0 481.76 486.8">
  <defs>
    <style>
      .cls-1 {
        fill: #080808;
        stroke: #000;
        stroke-linecap: round;
        stroke-linejoin: round;
        stroke-width: .7px;
      }
    </style>
  </defs>
  <g id="svg2">
    <g id="_3539e054-7281-4375-9741-0b48e3ace2b6" data-name=" 3539e054-7281-4375-9741-0b48e3ace2b6">
      <path class="cls-1" d="M7.06,430.15c-23.5,35.2,20.3,77.4,46.1,44.3,1.3-1.7,2.4-3.2,2.9-4,3.8-5.6,7.2-11.5,10.8-17.2,3.1-5,6.2-9.9,9.2-15,1.7-2.8,3.1-5.7,4.7-8.6,2.1-3.6,4.3-7.1,6.4-10.7,1.7-3,3.3-6.1,4.8-9.3,1.5-3.3,3-6.6,4-10.2,1.6-5.5,2.8-11.1,3.9-16.7,1-5.1,1.8-10.3,2.6-15.4.2-1.1,28.1-203.4,28.4-205.3.3-2,1.4-11.1,2-13.6,1.2-5.2,4.8-18.8,5.3-20.5.6-1.7,5.8-14.4,6.8-16.3,1.1-2.1,6.5-12.2,10.7-17.4.6-.7,2-2.5,4.4-4.8,2.1-2.1,3.8-3.5,6.7-5.6,5.4-4,10.4-6.5,11.4-7,1.8-.9,3.7-1.7,5.7-2.4,3-1,6-1.8,9.1-2.5,1.4-.3,2.9-.5,4.4-.7,1.4-.2,2.8-.4,4.3-.5,7.7-.4,15.3-.7,23-.9,8.9-.2,17.8-.4,26.7-.4,8.4,0,16.9.2,25.3.4,2.1,0,4.2.2,6.3.4,1.2.1,9.2.6,12.1,1.2,3.2.7,7.3,1.8,8.6,2.3,2.6.8,6.6,1.9,12,5.9,2.4,1.8,8.4,7.3,12.2,11.3,1.5,1.5,4.1,4.7,5.2,6.1,1,1.2,4.2,6.5,4.7,7.4,1.9,3.4,2.8,4.9,4.6,8.3,1.2,2.5,1.9,3.9,3.2,7.8,1.7,5.2,3.1,10.5,4.5,15.8,1.2,4.5,2.3,9,3.2,13.6.9,5.1,3.4,21.4,3.9,24.5.6,4,24.1,191.4,25.7,199,1,5.2,4.3,20.6,5,23.1,1.8,6.1,3.8,12.1,6.2,17.9,1.7,4,8.1,15.7,9.2,17.8,2.4,4.6,8,15.5,8.4,16.2,4.2,6.9,8.6,13.6,13,20.3,1.3,2,2.8,4,4.2,5.9,26.1,32.7,69.4-9.9,45.7-44.9l-1.9-2.6-.3-.4-.2-.3-2.8-4.3-3-4.7-2.9-4.6-1.7-2.7-2.2-4.2-4.9-9.4c-.1-.2-.3-.5-.4-.7l-4.2-7.8-2.3-4.5-.2-.5-.3-.7-.9-2.6-.9-2.7-.5-1.8v-.4l-1.4-5.8-2.1-10.1v-.7c-.1,0-1-6.2-1-6.2l-3-22.8-8.6-66.9-8.4-66.4h0l-2.8-22.3v-.2l-1.2-9.4c0-.7-.2-1.3-.3-2l-1.8-11.5v-.3l-1.2-7.5c0-.3,0-.5-.1-.8l-.9-5.5c-.1-.8-.3-1.6-.4-2.4l-.7-3.4c-.1-.7-.3-1.3-.4-2l-.8-3.4c-.1-.6-.3-1.2-.4-1.7l-1.7-6.7c0-.2,0-.4-.1-.6l-1-4c0-.2,0-.4-.1-.6l-1.1-4c-.1-.4-.2-.9-.4-1.3l-1.1-3.9c-.2-.7-.4-1.4-.6-2l-1.2-3.9c-.2-.8-.5-1.5-.8-2.2l-.9-2.5c-.3-.9-.7-1.8-1-2.7l-.8-1.9c-.4-1.1-.9-2.1-1.3-3.2l-.8-1.7c-.3-.7-.7-1.5-1-2.2l-.8-1.7c-.2-.4-.4-.8-.6-1.2l-1.2-2.3c-.3-.5-.5-1-.8-1.5l-1-1.9c-.2-.3-.3-.6-.5-.8l-2.3-4.1c-.3-.6-.6-1.1-1-1.6l-.8-1.4c-.2-.4-.4-.7-.7-1.1l-1.4-2.2c-.2-.3-.4-.6-.6-.9l-1.5-2.3c-.4-.7-.9-1.3-1.3-2l-1.1-1.6c-1-1.4-2-2.7-3-4l-2.4-3c-.3-.4-.7-.8-1-1.2l-1.4-1.7c-.4-.5-.9-1-1.3-1.5l-1.3-1.4c-.7-.7-1.3-1.4-2-2.1l-3.2-3.2c-.4-.4-.9-.8-1.3-1.3l-3.5-3.3c-.4-.4-.9-.8-1.3-1.2l-3.2-2.9c-.5-.4-1-.9-1.5-1.3l-1.3-1.1c-.6-.5-1.2-1-1.8-1.5l-1.1-.8c-.9-.7-1.9-1.4-2.9-2.1l-2-1.3c-.9-.6-1.8-1.2-2.7-1.8l-1.8-1.1c-.9-.5-1.8-1.1-2.7-1.6l-1.7-.9c-.9-.5-1.8-.9-2.7-1.3l-1.6-.7c-.8-.4-1.6-.7-2.5-1.1l-1.4-.6c-.7-.3-1.4-.5-2.1-.8l-1.3-.5c-.6-.2-1.1-.4-1.7-.6l-2.2-.7c-.4-.1-.8-.3-1.2-.4l-1.5-.4-1.2-.3-2.2-.6c-.3,0-.6-.2-1-.3l-2.5-.6-1.2-.3-2.5-.6c-.9-.2-1.9-.4-2.9-.6l-1.3-.2c-.7-.1-1.5-.2-2.2-.3l-1.6-.2c-.5,0-1-.1-1.5-.2l-3.7-.4h-1l-5.4-.4h-.3l-3.2-.2c-.6,0-1.2,0-1.9-.1h-3.2c-.3-.1-.7-.1-1-.2l-12.7-.3h-28.1l-13.4.3h-.6l-11.5.4h-.7l-11.5.5c-.9,0-1.8.1-2.7.2l-2.1.2c-.7,0-1.5.2-2.2.3l-1.9.3-2,.3c-.4,0-.9.1-1.3.2l-1.1.2c-.8.1-1.6.3-2.4.4l-1.1.2c-.7.1-1.3.3-2,.4l-2.3.6c-.3,0-.6.1-.9.2l-2.3.6c-.4,0-.8.2-1.1.3l-2.3.6c-.5.1-.9.3-1.4.4l-2.3.7c-.7.2-1.3.4-2,.7l-1.4.5c-.7.3-1.4.5-2.1.8l-1.4.6c-.6.2-1.2.5-1.8.8l-1.4.6c-.5.2-1,.4-1.5.7l-1.4.7c-.5.2-1,.5-1.5.8l-1.5.8c-.5.3-1.1.6-1.6.9l-2.6,1.5c-.5.3-.9.5-1.4.8l-1.6,1c-.4.2-.7.5-1.1.7l-1.8,1.1c-.4.3-.8.5-1.3.8l-1.9,1.3c-.5.3-.9.6-1.4,1l-2,1.4c-.5.3-.9.7-1.4,1l-2,1.5c-.5.4-1.1.8-1.6,1.2l-1.7,1.4c-.6.5-1.2,1-1.8,1.5l-1.5,1.3c-.5.5-1.1,1-1.6,1.5l-1.5,1.4c-.5.5-1,1-1.5,1.4l-1.6,1.6-1.7,1.7-1.3,1.4c-.6.7-1.2,1.4-1.8,2.1l-1.5,1.8c-.6.7-1.2,1.4-1.7,2.1l-.8,1c-.4.5-.8,1.1-1.3,1.7l-.8,1.1c-.5.6-.9,1.3-1.4,1.9l-1.7,2.5c-.4.6-.9,1.3-1.3,1.9l-1.7,2.6c-.3.5-.6,1-.9,1.4l-1.6,2.6c-.3.5-.6,1-.9,1.5l-2.6,4.7c-.3.5-.6,1.1-.9,1.6l-1.5,2.9c-.8,1.5-1.6,3.1-2.3,4.6l-1.4,3.1c-.2.5-.4,1-.6,1.5l-2.1,5.1c0,.2-.2.5-.3.7l-2.1,5.1c-.2.4-.3.8-.5,1.3l-1.2,3c-.8,2.2-1.6,4.4-2.2,6.6l-.9,3.2c-.1.4-.2.8-.3,1.2l-1.5,5.8c0,.2-.1.4-.2.7l-1.6,6.4c0,.4-.2.7-.3,1.1l-1.2,5.1c-.3,1.2-.5,2.3-.8,3.5l-.2,1.2c-.1.7-.3,1.5-.4,2.2l-.3,1.7c0,.5-.1.9-.2,1.4l-.6,4.1c0,.3,0,.7-.1,1l-.8,6.4-28.3,204.7-.5,3.1-.5,3-.4,2.6-.5,2.6-.7,3.2-.6,2.9-.6,2.5h0v.3l-.5,1.1-.3.7-.2.5-1.6,2.9-.8,1.4-1.2,2-1.6,2.6c-.2.2-.3.5-.5.8l-1.6,2.7c-.4.7-.8,1.4-1.2,2.1l-2.3,4.3s0,.2-.1.3l-.8,1.4-.4.7-1.6,2.7-2,3.3-4.6,7.3c0,.1-.2.3-.3.4l-2.7,4.3v.1l-2.5,4.1-2.1,3.4-1.5,2.3-2,2.8"/>
    </g>
  </g>
</svg>